<svg xmlns="http://www.w3.org/2000/svg" version="1.1" width="495" height="480" viewBox="0 0 495 480"><line x1="12" y1="15" x2="483" y2="15" stroke="#da3b26" stroke-width="2"/><line x1="60" y1="53" x2="435" y2="53" stroke="#4ca98f" stroke-width="2"/><line x1="162" y1="88" x2="333" y2="88" stroke="#da3b26" stroke-width="2"/><line x1="212" y1="129" x2="283" y2="129" stroke="#78beab" stroke-width="2"/><line x1="190" y1="148" x2="305" y2="148" stroke="#e36c5c" stroke-width="2"/><line x1="190" y1="167" x2="305" y2="167" stroke="#78beab" stroke-width="2"/><line x1="212" y1="186" x2="283" y2="186" stroke="#e36c5c" stroke-width="2"/><line x1="227" y1="226" x2="268" y2="226" stroke="#a5d4c7" stroke-width="2"/><line x1="217" y1="247" x2="278" y2="247" stroke="#ec9d92" stroke-width="2"/><line x1="217" y1="268" x2="278" y2="268" stroke="#a5d4c7" stroke-width="2"/><line x1="227" y1="289" x2="268" y2="289" stroke="#ec9d92" stroke-width="2"/><line x1="235" y1="326.7" x2="260" y2="326.7" stroke="#d2e9e3" stroke-width="2"/><line x1="230" y1="343.3" x2="265" y2="343.3" stroke="#f5cec9" stroke-width="2"/><line x1="228" y1="360" x2="267" y2="360" stroke="#d2e9e3" stroke-width="2"/><line x1="230" y1="376.7" x2="265" y2="376.7" stroke="#f5cec9" stroke-width="2"/><line x1="235" y1="393.3" x2="260" y2="393.3" stroke="#d2e9e3" stroke-width="2"/><line x1="245" y1="428" x2="250" y2="428" stroke="#f5cec9" stroke-width="2"/><line x1="243" y1="439" x2="252" y2="439" stroke="#d2e9e3" stroke-width="2"/><line x1="245" y1="450" x2="250" y2="450" stroke="#f5cec9" stroke-width="2"/><path d="M 5 5 C 30 40 45 60 247.5 110 M 490 5 C 465 40 450 60 247.5 110 M 247.5 110 Q 365 157.5 247.5 205 M 247.5 110 Q 130 157.5 247.5 205 M 247.5 205 Q 312 257.5 247.5 310 M 247.5 205 Q 183 257.5 247.5 310 M 247.5 310 Q 285 360 247.5 410 M 247.5 310 Q 210 360 247.5 410" stroke="black" stroke-width="4" fill-opacity="0"/><line x1="205" y1="475" x2="290" y2="475" stroke="black" stroke-width="4"/><path d="M 247.5 410 Q 255 442.5 246 474 M 247.5 410 Q 240 442.5 249 474" stroke="black" stroke-width="2.5" fill-opacity="0"/></svg>